TITLE "Samination - Mix 60 - Japanese Dreamscape"
PERFORMER "Various Artists"
FILE "samination_mix60-japanese_dreamscape.ogg" WAVE
	TRACK 01 AUDIO
		TITLE "Filiation (DJ-Technetium remix)"
		PERFORMER "Lia"
		INDEX 01 00:00:00
	TRACK 02 AUDIO
		TITLE "Fahrenheit"
		PERFORMER "Jordi K-Stana vs Alex Laser & Dj Lobo"
		INDEX 01 04:17:00
	TRACK 03 AUDIO
		TITLE "Apocalipsix"
		PERFORMER "DJ Neutron"
		INDEX 01 08:33:00
	TRACK 04 AUDIO
		TITLE "Concrete Angel (Chaos & D-Core Remix)"
		PERFORMER "Gareth Emery"
		INDEX 01 10:41:00
	TRACK 05 AUDIO
		TITLE "Control Your Body"
		PERFORMER "Scott Brown"
		INDEX 01 15:27:35
	TRACK 06 AUDIO
		TITLE "Circles"
		PERFORMER "Minamotoya"
		INDEX 01 18:39:50
	TRACK 07 AUDIO
		TITLE "Stasis (Dj-Technetium remix)"
		PERFORMER "Minamotoya"
		INDEX 01 21:52:00
	TRACK 08 AUDIO
		TITLE "Spektrum"
		PERFORMER "Obsys"
		INDEX 01 25:46:20
	TRACK 09 AUDIO
		TITLE "Lamprey (Oldschool Makina mix)"
		PERFORMER "M-Project"
		INDEX 01 29:20:00
	TRACK 10 AUDIO
		TITLE "Escape From Massive Attack"
		PERFORMER "Minamotoya"
		INDEX 01 33:36:00
	TRACK 11 AUDIO
		TITLE "Product of Society"
		PERFORMER "Sharkey ft DSG"
		INDEX 01 37:36:00
	TRACK 12 AUDIO
		TITLE "The Limit"
		PERFORMER "Tazz & Loopy"
		INDEX 01 40:37:00
	TRACK 13 AUDIO
		TITLE "Umbla"
		PERFORMER "Le Dos-On"
		INDEX 01 45:36:00
	TRACK 14 AUDIO
		TITLE "Rock The Disco"
		PERFORMER "Duncan Oatham"
		INDEX 01 50:56:00
	TRACK 15 AUDIO
		TITLE "Practical Experience"
		PERFORMER "DJ Myosuke"
		INDEX 01 54:02:30
	TRACK 16 AUDIO
		TITLE "Down To Reality"
		PERFORMER "6th"
		INDEX 01 57:35:50
	TRACK 17 AUDIO
		TITLE "Part Of Plan"
		PERFORMER "Dischord ft MC KCD"
		INDEX 01 60:37:30
	TRACK 18 AUDIO
		TITLE "dLb"
		PERFORMER "kenta-v.ez."
		INDEX 01 63:41:00
